<?xml version="1.0" standalone="no"?> <!DOCTYPE svg PUBLIC "-//W3C//DTD SVG 1.0//EN" "http://www.w3.org/TR/2001/REC-SVG-20010904/DTD/svg10.dtd" > <svg xmlns="http://www.w3.org/2000/svg" width="100%" height="100%">
<defs >
<font id="exljbrismuseo500" horiz-adv-x="472" ><font-face
    font-family="Museo-500"
    units-per-em="1000"
    panose-1="2 0 0 0 0 0 0 0 0 0"
    ascent="940"
    descent="-260"
    alphabetic="0" />
<missing-glyph horiz-adv-x="510" d="M5 0V700H505V0H5ZM255 395L425 650H85L255 395ZM285 350L455 95V605L285 350ZM55 95L225 350L55 605V95ZM85 50H425L255 305L85 50Z" />
<glyph unicode=" " glyph-name="space" horiz-adv-x="269" />
<glyph unicode="!" glyph-name="exclam" horiz-adv-x="314" d="M114 194L107 706H207L201 194H114ZM108 0V97H207V0H108Z" />
<glyph unicode="&quot;" glyph-name="quotedbl" horiz-adv-x="340" d="M202 530V718H278V530H202ZM62 530V718H138V530H62Z" />
<glyph unicode="#" glyph-name="numbersign" horiz-adv-x="706" d="M134 0L167 191H37L49 265H180L209 433H80L92 506H222L257 706H338L303 506H458L493 706H574L539 506H670L657 433H527L497 265H627L614 191H485L451 0H370L403 191H248L215 0H134ZM261 265H416L446
433H291L261 265Z" />
<glyph unicode="$" glyph-name="dollar" horiz-adv-x="546" d="M42 125L113 184Q115 180 120 173T141 148T175 116T222 91T284 79Q338 79 371 108T405 184Q405 225 370 255T285 307T184 355T99 426T64 535Q64 605 115 654T248 715V809H321V716Q361 711 396 699T458
657T486 588V530H394V563Q394 590 364 608T290 627Q234 627 200 601T166 536Q166 506 185 483T233 444T299 412T372 377T438 335T487 273T506 187Q506 113 456 57T321 -9V-102H248V-10Q208 -5 172 10T114 45T74 82T50 112L42 125Z" />
<glyph unicode="%" glyph-name="percent" horiz-adv-x="783" d="M273 422T210 422T103 465T59 570Q59 631 103 674T210 718T317 675T362 570T318 466ZM74 0L614 706H708L168 0H74ZM178 496T210 496T263 517T284 570Q284 601 263 623T210 645T158 623T136 570Q136
538 157 517ZM421 136Q421 197 465 240T573 284Q635 284 680 241T725 136T680 32T573 -12Q509 -12 465 31T421 136ZM499 136Q499 104 520 83T573 62T625 83T647 136T626 189T573 211T521 189T499 136Z" />
<glyph unicode="&amp;" glyph-name="ampersand" horiz-adv-x="638" d="M44 202Q44 260 76 311T166 378V380Q162 381 156 384T135 399T107 428T85 473T75 536Q75 618 133 668T287 718Q307 718 329 715T364 710L376 707L351 628Q322 635 298 635Q244 635 210 605T175
526Q175 507 180 490T199 454T239 426T305 415H432V506H529V415H618V329H529V235Q529 118 465 53T289 -12Q182 -12 113 49T44 202ZM145 203Q145 151 184 115T289 79Q357 79 394 118T432 239V329H306Q229 329 187 296T145 203Z" />
<glyph unicode="&apos;" glyph-name="quotesingle" horiz-adv-x="201" d="M62 530V718H139V530H62Z" />
<glyph unicode="(" glyph-name="parenleft" horiz-adv-x="330" d="M83 329Q83 561 196 735H281Q171 551 171 336Q171 106 286 -95H200Q83 88 83 329Z" />
<glyph unicode=")" glyph-name="parenright" horiz-adv-x="330" d="M44 -95Q159 106 159 336Q159 551 49 735H134Q247 561 247 329Q247 88 130 -95H44Z" />
<glyph unicode="*" glyph-name="asterisk" horiz-adv-x="480" d="M161 329L89 381L178 491V493L42 530L68 614L201 564L194 706H285L277 564L411 614L438 530L301 493V491L389 381L318 329L241 447H239L161 329Z" />
<glyph unicode="+" glyph-name="plus" horiz-adv-x="613" d="M42 246V324H266V570H348V324H571V246H348V0H266V246H42Z" />
<glyph unicode="," glyph-name="comma" horiz-adv-x="240" d="M84 105H182L97 -101H22L84 105Z" />
<glyph unicode="-" glyph-name="hyphen" horiz-adv-x="431" d="M70 242V328H362V242H70Z" />
<glyph unicode="." glyph-name="period" horiz-adv-x="240" d="M70 0V103H169V0H70Z" />
<glyph unicode="/" glyph-name="slash" horiz-adv-x="346" d="M1 -42L255 744H341L87 -42H1Z" />
<glyph unicode="0" glyph-name="zero" horiz-adv-x="607" d="M304 -12Q54 -12 54 354Q54 718 304 718Q553 718 553 354Q553 -12 304 -12ZM304 79Q452 79 452 354Q452 627 304 627Q155 627 155 354Q155 79 304 79Z" />
<glyph unicode="1" glyph-name="one" horiz-adv-x="504" d="M64 0V86H219V542L220 586H218Q210 570 185 545L119 480L59 542L228 706H319V86H473V0H64Z" />
<glyph unicode="2" glyph-name="two" horiz-adv-x="573" d="M38 81Q38 134 58 176T109 247T179 300T256 345T325 389T377 443T397 514Q397 563 363 594T273 626Q227 626 196 606T164 559V528H72V588Q72 631 107 662T187 705T277 718Q374 718 436 662T499 515Q499
448 462 396T373 312T268 251T178 186T141 105Q141 86 166 86H417Q439 86 439 108V153H531V64Q531 30 516 15T467 0H105Q65 0 52 18T38 81Z" />
<glyph unicode="3" glyph-name="three" horiz-adv-x="541" d="M26 87L80 162Q83 159 88 154T112 134T149 110T198 91T259 82Q317 82 358 118T399 211Q399 268 355 302T247 337H197L176 390L323 575Q332 588 342 599T358 616L364 621V623Q343 620 304 620H168Q146
620 146 598V553H54V642Q54 676 68 691T115 706H487V643L301 419Q381 410 441 358T501 212Q501 120 434 54T259 -12Q194 -12 136 13T52 62L26 87Z" />
<glyph unicode="4" glyph-name="four" horiz-adv-x="575" d="M17 187V251L335 706H449V273H559V187H449V0H349V187H17ZM350 273V516L354 588H352Q334 554 316 529L162 317L125 272V270Q154 273 185 273H350Z" />
<glyph unicode="5" glyph-name="five" horiz-adv-x="582" d="M51 87L105 160Q107 157 111 152T132 133T165 109T211 91T270 82Q336 82 379 122T422 223Q422 287 374 327T254 367Q219 367 186 358T136 340L120 331L79 350L107 642Q110 677 124 691T171 706H417Q451
706 466 691T481 642V553H390V598Q390 620 368 620H220Q201 620 198 598L184 469L179 432H181Q219 453 272 453Q384 453 454 387T524 221Q524 125 453 57T270 -12Q205 -12 151 13T74 62L51 87Z" />
<glyph unicode="6" glyph-name="six" horiz-adv-x="567" d="M302 -12Q188 -12 113 77T38 313Q38 385 57 454T114 584T214 681T356 718Q393 718 427 711T478 696L493 689L461 604Q416 627 360 627Q270 627 215 557T148 385H150Q171 417 214 435T306 454Q405 454
467 388T529 224Q529 120 465 54T302 -12ZM143 271Q143 200 189 140T301 79Q361 79 396 120T431 224Q431 289 392 329T286 370Q228 370 186 340T143 271Z" />
<glyph unicode="7" glyph-name="seven" horiz-adv-x="525" d="M63 0L363 556L404 621V623Q388 620 353 620H140Q118 620 118 598V553H26V642Q26 676 40 691T87 706H516V638L174 0H63Z" />
<glyph unicode="8" glyph-name="eight" horiz-adv-x="576" d="M42 202Q42 234 54 265T83 316T117 352T146 376L158 383V385Q154 387 149 390T128 407T102 436T81 476T71 529Q71 607 130 662T291 718Q391 718 451 665T512 527Q512 498 503 470T482 423T458 388T436
366L427 359V357Q532 296 532 195Q532 110 463 49T288 -12Q185 -12 114 47T42 202ZM285 416Q325 399 340 399Q360 399 387 438T415 521Q415 569 381 598T291 627Q235 627 202 599T169 527Q169 485 197 462T285 416ZM143 207Q143 150 185 115T288 79Q345 79 388
113T431 198Q431 240 402 265T312 314Q248 340 239 340Q215 340 179 299T143 207Z" />
<glyph unicode="9" glyph-name="nine" horiz-adv-x="567" d="M74 17L106 103Q151 79 207 79Q297 79 352 150T419 322H417Q396 290 353 272T261 253Q162 253 100 318T38 482Q38 586 102 652T265 718Q379 718 454 629T529 393Q529 321 510 252T453 122T353 25T211
-12Q174 -12 140 -5T90 10L74 17ZM281 336Q339 336 381 366T424 435Q424 506 378 566T266 627Q206 627 171 586T136 482Q136 418 175 377T281 336Z" />
<glyph unicode=":" glyph-name="colon" horiz-adv-x="294" d="M98 403V506H197V403H98ZM98 0V103H197V0H98Z" />
<glyph unicode=";" glyph-name="semicolon" horiz-adv-x="294" d="M98 403V506H197V403H98ZM45 -101L96 105H193L120 -101H45Z" />
<glyph unicode="&lt;" glyph-name="less" horiz-adv-x="613" d="M67 252V318L533 526V437L175 286V284L533 133V44L67 252Z" />
<glyph unicode="=" glyph-name="equal" horiz-adv-x="613" d="M68 340V418H545V340H68ZM68 151V229H545V151H68Z" />
<glyph unicode="&gt;" glyph-name="greater" horiz-adv-x="613" d="M74 44V133L431 284V286L74 437V526L540 318V252L74 44Z" />
<glyph unicode="?" glyph-name="question" horiz-adv-x="453" d="M149 194V241Q149 283 166 317T209 376T259 422T301 471T319 530Q319 572 287 600T205 629Q177 629 149 619T106 598L91 587L37 656Q44 663 58 673T118 702T212 720Q299 720 360 669T421 537Q421
491 403 455T359 394T306 347T262 296T244 235V194H149ZM147 0V97H246V0H147Z" />
<glyph unicode="@" glyph-name="at" horiz-adv-x="762" d="M40 86T40 241T146 503T405 611Q540 611 602 554T665 408V125H737V52H464Q373 52 315 107T257 241Q257 318 314 373T464 428H572Q570 473 528 502T410 531Q295 531 216 446T137 241Q137 120 216 37T421
-46V-125Q255 -125 148 -20ZM355 242Q355 193 388 159T471 125H572V361H473Q421 361 388 327T355 242Z" />
<glyph unicode="A" glyph-name="A" horiz-adv-x="665" d="M12 0V86H26Q52 86 59 108L280 706H385L606 108Q613 86 639 86H654V0H598Q561 0 545 11T516 58L463 203H203L150 58Q137 23 121 12T67 0H12ZM227 287H438L361 502L333 601H331Q317 539 304 502L227 287Z" />
<glyph unicode="B" glyph-name="B" horiz-adv-x="617" d="M102 64V620H37V706H339Q430 706 487 658T544 526Q544 471 519 432T456 374V372Q511 356 541 309T572 201Q572 105 508 53T345 0H166Q132 0 117 15T102 64ZM202 409H340Q386 409 414 439T442 516T415 591T338
620H202V409ZM202 108Q202 86 224 86H350Q406 86 437 118T469 206Q469 260 437 293T350 327H202V108Z" />
<glyph unicode="C" glyph-name="C" horiz-adv-x="701" d="M34 359Q34 512 135 615T388 718Q427 718 470 710T555 684T625 636T653 565V496H561V536Q561 577 506 601T390 625Q282 625 210 551T138 359Q138 243 211 163T393 82Q432 82 469 92T532 116T577 144T606
168L616 178L670 106Q666 101 658 93T624 65T567 30T490 1T392 -12Q236 -12 135 94T34 359Z" />
<glyph unicode="D" glyph-name="D" horiz-adv-x="715" d="M103 64V620H38V706H324Q487 706 584 613T681 354Q681 188 584 94T324 0H167Q133 0 118 15T103 64ZM203 108Q203 86 225 86H317Q437 86 507 156T577 354Q577 481 507 550T317 620H203V108Z" />
<glyph unicode="E" glyph-name="E" horiz-adv-x="568" d="M103 64V620H38V706H453Q487 706 502 691T517 642V553H426V598Q426 620 404 620H203V399H450V313H203V108Q203 86 225 86H431Q453 86 453 108V153H545V64Q545 30 530 15T481 0H167Q133 0 118 15T103 64Z" />
<glyph unicode="F" glyph-name="F" horiz-adv-x="513" d="M103 0V620H38V706H427Q461 706 476 691T491 642V553H400V598Q400 620 378 620H203V388H444V302H203V0H103Z" />
<glyph unicode="G" glyph-name="G" horiz-adv-x="736" d="M35 356Q35 509 137 613T391 718Q466 718 529 696T618 652L643 631L586 558Q577 566 562 577T496 607T393 626Q286 626 213 550T139 356Q139 235 212 159T395 82Q430 82 464 91T520 113T561 139T588 161L596
170V241Q596 263 574 263H531V349H624Q658 349 673 334T688 285V0H600V44L601 74H599Q596 71 590 65T562 44T518 18T456 -2T379 -12Q235 -12 135 91T35 356Z" />
<glyph unicode="H" glyph-name="H" horiz-adv-x="765" d="M103 0V598Q103 620 81 620H38V706H139Q173 706 188 691T203 642V395H562V642Q562 676 577 691T626 706H727V620H684Q662 620 662 598V0H562V310H203V0H103Z" />
<glyph unicode="I" glyph-name="I" horiz-adv-x="317" d="M42 0V86H111V620H42V706H275V620H206V86H275V0H42Z" />
<glyph unicode="J" glyph-name="J" horiz-adv-x="522" d="M22 203V238H122V211Q122 143 154 113T233 82T311 112T343 207V598Q343 620 321 620H148V706H379Q413 706 428 691T443 642V203Q443 96 381 42T232 -12T84 42T22 203Z" />
<glyph unicode="K" glyph-name="K" horiz-adv-x="611" d="M103 0V598Q103 620 81 620H38V706H139Q173 706 188 691T203 642V409H270Q314 409 328 433L485 706H597L426 413Q417 397 407 386T392 370L386 367V365Q406 360 426 321L532 109Q543 86 582 86H601V0H546Q503
0 484 10T448 53L326 298Q312 324 263 324H203V0H103Z" />
<glyph unicode="L" glyph-name="L" horiz-adv-x="543" d="M103 64V598Q103 620 81 620H38V706H139Q173 706 188 691T203 642V108Q203 86 225 86H420Q442 86 442 108V153H533V64Q533 30 518 15T469 0H167Q133 0 118 15T103 64Z" />
<glyph unicode="M" glyph-name="M" horiz-adv-x="857" d="M20 0V86H54Q74 86 76 108L124 706H227L393 332L428 243H430Q448 294 465 332L631 706H734L782 108Q784 86 804 86H837V0H748Q715 0 701 15T684 64L655 437L653 541H651Q631 475 614 437L471 127H387L244
437Q236 453 227 479T212 524L206 542H204Q205 479 202 437L174 64Q172 30 158 15T109 0H20Z" />
<glyph unicode="N" glyph-name="N" horiz-adv-x="765" d="M38 0V86H81Q103 86 103 108V706H194L508 259L567 163H569Q562 219 562 259V642Q562 676 577 691T627 706H727V620H684Q662 620 662 598V0H572L257 447L199 543H197Q203 486 203 447V64Q203 30 188 15T139 0H38Z" />
<glyph unicode="O" glyph-name="O" horiz-adv-x="793" d="M34 358Q34 510 138 614T396 718T654 614T759 358Q759 202 654 95T396 -12T139 95T34 358ZM138 358Q138 242 213 162T396 82T579 162T655 358Q655 471 580 548T396 625T213 548T138 358Z" />
<glyph unicode="P" glyph-name="P" horiz-adv-x="592" d="M103 0V620H38V706H349Q447 706 508 646T570 485T508 323T349 261H203V0H103ZM203 347H333Q395 347 431 384T467 485Q467 548 432 584T334 620H203V347Z" />
<glyph unicode="Q" glyph-name="Q" horiz-adv-x="793" d="M34 357Q34 510 138 614T395 718Q549 718 654 614T759 357Q759 226 676 125L757 46L697 -18L616 63Q523 -12 395 -12Q242 -12 138 95T34 357ZM138 357Q138 241 212 162T395 82Q436 82 473 94T528 118L544
131L466 207L526 272L603 193Q655 264 655 357Q655 471 580 547T395 624Q286 624 212 548T138 357Z" />
<glyph unicode="R" glyph-name="R" horiz-adv-x="618" d="M103 0V620H38V706H346Q440 706 498 650T557 499Q557 419 517 371T430 312V310Q448 301 460 278L545 109Q556 86 595 86H608V0H559Q516 0 497 10T461 53L365 243Q352 267 339 274T295 281H203V0H103ZM203
367H333Q390 367 422 401T454 495Q454 554 423 587T335 620H203V367Z" />
<glyph unicode="S" glyph-name="S" horiz-adv-x="533" d="M34 93L93 164Q96 161 101 155T125 135T162 109T211 88T270 79Q321 79 356 108T391 184Q391 218 366 245T303 290T221 329T139 374T76 437T50 529Q50 609 113 663T276 718Q319 718 362 707T441 664T477
588V530H385V563Q385 590 352 608T276 627Q220 627 186 600T152 532Q152 499 177 473T240 431T322 394T404 349T467 285T492 189Q492 105 431 47T268 -12Q226 -12 187 -1T121 25T74 55T44 82L34 93Z" />
<glyph unicode="T" glyph-name="T" horiz-adv-x="636" d="M268 0V620H126Q104 620 104 598V553H15V646Q15 680 28 693T75 706H561Q595 706 608 693T621 646V553H532V598Q532 620 510 620H368V0H268Z" />
<glyph unicode="U" glyph-name="U" horiz-adv-x="728" d="M95 247V598Q95 620 73 620H30V706H131Q165 706 180 691T195 642V251Q195 172 241 127T364 82T487 127T533 252V642Q533 676 548 691T598 706H698V620H655Q633 620 633 598V247Q633 131 559 60T365 -12Q244
-12 170 59T95 247Z" />
<glyph unicode="V" glyph-name="V" horiz-adv-x="668" d="M281 0L59 598Q52 620 26 620H12V706H68Q106 706 122 695T151 648L306 213L333 116H335Q348 175 362 213L517 648Q530 683 546 694T600 706H656V620H642Q616 620 609 598L387 0H281Z" />
<glyph unicode="W" glyph-name="W" horiz-adv-x="968" d="M221 0L66 598Q60 620 32 620H17V706H74Q114 706 133 694T161 648L270 194L284 119H286Q292 155 303 194L445 704H535L667 194L682 119H684Q688 156 697 194L808 648Q817 683 836 694T894 706H951V620H936Q908
620 902 598L747 0H631L511 446L491 543H489Q479 492 466 447L338 0H221Z" />
<glyph unicode="X" glyph-name="X" horiz-adv-x="591" d="M10 0L232 364L90 595Q75 620 44 620H18V706H77Q114 706 133 696T171 652L250 518L295 435H297Q317 479 340 518L420 652Q439 685 458 695T515 706H573V620H548Q530 620 521 616T501 595L358 364L581 0H468L340
215L295 295H293Q273 253 250 214L123 0H10Z" />
<glyph unicode="Y" glyph-name="Y" horiz-adv-x="603" d="M252 0V308L73 595Q58 620 30 620H10V706H56Q93 706 112 696T151 652L258 474L301 395H303Q322 435 346 474L452 652Q472 686 491 696T547 706H593V620H574Q545 620 530 595L352 308V0H252Z" />
<glyph unicode="Z" glyph-name="Z" horiz-adv-x="582" d="M18 0V66L366 556Q378 573 391 589T412 614L419 621V623Q400 620 366 620H139Q117 620 117 598V553H26V642Q26 676 41 691T90 706H543V641L194 150Q182 133 169 117T149 94L142 86V84Q161 86 194 86H443Q465
86 465 108V153H557V64Q557 30 542 15T493 0H18Z" />
<glyph unicode="[" glyph-name="bracketleft" horiz-adv-x="327" d="M97 -31V671Q97 705 112 720T161 735H262V662H204Q182 662 182 640V1Q182 -21 204 -21H262V-95H161Q127 -95 112 -80T97 -31Z" />
<glyph unicode="\" glyph-name="backslash" horiz-adv-x="340" d="M259 -42L5 744H91L345 -42H259Z" />
<glyph unicode="]" glyph-name="bracketright" horiz-adv-x="327" d="M65 -21H123Q145 -21 145 1V640Q145 662 123 662H65V735H166Q200 735 215 720T231 671V-31Q231 -65 216 -80T166 -95H65V-21Z" />
<glyph unicode="^" glyph-name="asciicircum" horiz-adv-x="613" d="M69 247L269 706H332L531 247H444L300 599L157 247H69Z" />
<glyph unicode="_" glyph-name="underscore" horiz-adv-x="548" d="M5 0H543V-78H5V0Z" />
<glyph unicode="`" glyph-name="grave" horiz-adv-x="379" d="M178 755L83 882H181L254 755H178Z" />
<glyph unicode="a" glyph-name="a" horiz-adv-x="544" d="M37 142Q37 181 53 211T97 259T156 289T225 306T289 313T342 315H364V320Q364 386 338 413T252 441Q224 441 197 433T169 402V373H78V423Q78 452 97 472T148 502T204 514T253 518Q368 518 414 466T461
320V105Q461 83 483 83H524V0H433Q370 0 370 58L372 88H370Q368 84 365 77T349 53T318 23T272 -1T209 -12Q139 -12 88 29T37 142ZM135 180T135 147T160 90T230 66Q288 66 326 116T365 227V244H340Q303 244 276 242T212 231T155 201Z" />
<glyph unicode="b" glyph-name="b" horiz-adv-x="600" d="M81 0V601Q81 623 59 623H18V706H114Q148 706 163 691T178 642V477L176 435H178Q180 438 183 444T201 464T232 489T278 509T341 518Q442 518 502 445T563 253T499 61T333 -12Q301 -12 273 -3T228 18T198
42T180 64L174 73H172Q174 57 174 35V0H81ZM176 251Q176 178 213 125T319 71Q381 71 423 119T465 252Q465 334 425 383T321 433Q259 433 218 388T176 251Z" />
<glyph unicode="c" glyph-name="c" horiz-adv-x="533" d="M36 253Q36 366 112 442T308 518Q334 518 363 513T421 495T470 460T490 407V355H402V383Q402 408 372 421T308 435Q233 435 184 385T135 254Q135 171 187 123T313 74Q355 74 394 91T452 126L470 144L512
75Q509 71 504 66T478 45T436 19T379 -2T306 -12Q187 -12 112 63T36 253Z" />
<glyph unicode="d" glyph-name="d" horiz-adv-x="605" d="M37 253Q37 373 101 445T266 518Q299 518 327 510T371 491T400 468T418 448L422 440H424Q422 455 422 474V601Q422 623 400 623H359V706H455Q489 706 504 691T519 642V105Q519 83 541 83H582V0H489Q427
0 427 54L428 80H426Q424 76 421 70T403 48T372 20T325 -2T260 -12Q158 -12 98 61T37 253ZM279 72Q341 72 383 117T425 254Q425 327 388 380T281 434Q219 434 178 385T136 253Q136 171 175 122T279 72Z" />
<glyph unicode="e" glyph-name="e" horiz-adv-x="552" d="M36 253Q36 372 108 445T290 518Q393 518 450 451T508 281L505 241H136Q140 163 190 118T310 72Q349 72 386 87T440 116L458 131L500 62Q492 54 476 42T409 9T305 -12Q186 -12 111 63T36 253ZM140 312H408Q406
373 372 407T289 441Q232 441 192 408T140 312Z" />
<glyph unicode="f" glyph-name="f" horiz-adv-x="325" d="M85 0V428H22V506H85V523Q85 571 99 606T133 661T181 692T231 707T276 711L313 708V625Q303 627 288 627Q275 627 263 625T235 617T208 599T190 568T182 521V506H302V428H182V0H85Z" />
<glyph unicode="g" glyph-name="g" horiz-adv-x="595" d="M37 153T37 265T96 447T259 518Q294 518 324 510T371 490T400 467T416 447L421 439H423V455Q423 506 479 506H573V423H533Q511 423 511 403V21Q511 -39 490 -85T431 -157T350 -197T256 -210Q167 -210 83
-168L116 -90Q178 -124 254 -124Q325 -124 369 -90T414 17V51L416 83H414Q367 6 263 6Q160 6 99 79ZM282 90Q341 90 379 131T417 264Q417 434 274 434Q209 434 173 390T136 267Q136 187 175 139T282 90Z" />
<glyph unicode="h" glyph-name="h" horiz-adv-x="622" d="M81 0V601Q81 623 59 623H18V706H114Q148 706 163 691T178 644V447L176 405H178Q198 449 247 483T366 518Q539 518 539 324V105Q539 83 561 83H602V0H507Q473 0 458 15T443 64V302Q443 363 423 396T347
429Q290 429 247 395T187 304Q178 278 178 237V0H81Z" />
<glyph unicode="i" glyph-name="i" horiz-adv-x="275" d="M92 605V706H179V605H92ZM90 64V401Q90 423 68 423H27V506H122Q156 506 171 491T186 442V105Q186 83 208 83H249V0H154Q120 0 105 15T90 64Z" />
<glyph unicode="j" glyph-name="j" horiz-adv-x="286" d="M112 605V706H200V605H112ZM-20 -121Q-11 -122 2 -122Q19 -122 35 -118T69 -104T99 -70T110 -11V401Q110 423 88 423H47V506H143Q177 506 192 491T207 442V-17Q207 -76 187 -117T133 -175T71 -199T13 -206L-20
-204V-121Z" />
<glyph unicode="k" glyph-name="k" horiz-adv-x="525" d="M81 0V601Q81 623 59 623H18V706H114Q149 706 163 694T178 648V320H223Q259 320 276 342L393 506H504L367 318Q357 304 348 295T334 282L329 280V278Q346 272 363 240L438 103Q448 83 481 83H512V0H442Q407
0 391 9T358 47L266 217Q254 238 216 238H178V0H81Z" />
<glyph unicode="l" glyph-name="l" horiz-adv-x="268" d="M83 64V601Q83 623 61 623H20V706H116Q150 706 165 691T180 642V105Q180 83 202 83H243V0H147Q113 0 98 15T83 64Z" />
<glyph unicode="m" glyph-name="m" horiz-adv-x="937" d="M85 0V401Q85 423 63 423H22V506H115Q179 506 179 450V431L178 402H180Q199 449 247 483T353 518Q479 518 505 403H507Q529 451 578 484T687 518Q854 518 854 324V105Q854 83 876 83H917V0H821Q787 0 772
15T757 64V303Q757 364 739 397T668 430Q618 430 579 393T526 300Q518 266 518 231V0H421V303Q421 363 404 396T334 430Q281 430 243 392T189 296Q182 268 182 231V0H85Z" />
<glyph unicode="n" glyph-name="n" horiz-adv-x="626" d="M85 0V401Q85 423 63 423H22V506H115Q179 506 179 450V431L177 402H179Q199 445 247 481T369 518Q458 518 500 470T543 324V105Q543 83 565 83H606V0H510Q476 0 461 15T446 64V302Q446 363 427 396T351
429Q293 429 250 395T191 305Q182 279 182 237V0H85Z" />
<glyph unicode="o" glyph-name="o" horiz-adv-x="617" d="M36 140T36 254T115 443T308 518Q423 518 502 443T581 254T502 64T308 -12T115 64ZM135 332T135 254T185 124T308 72Q381 72 431 123T482 254Q482 332 432 383T308 434Q236 434 186 383Z" />
<glyph unicode="p" glyph-name="p" horiz-adv-x="604" d="M85 -200V401Q85 423 63 423H22V506H113Q175 506 175 455L174 428H176Q178 432 181 438T199 459T230 487T278 508T344 518Q445 518 506 445T567 253T502 61T337 -12Q306 -12 279 -4T234 16T205 40T187
60L182 69H180Q182 51 182 25V-200H85ZM179 251Q179 178 217 125T322 71Q384 71 426 119T468 252Q468 334 429 383T325 433Q263 433 221 388T179 251Z" />
<glyph unicode="q" glyph-name="q" horiz-adv-x="604" d="M38 253Q38 373 101 445T266 518Q300 518 329 509T375 488T406 463T424 441L429 432H431Q430 443 430 458Q430 506 492 506H583V423H542Q520 423 520 401V-200H423V29L425 73H423Q421 70 418 64T400 44T369
18T323 -3T260 -12Q159 -12 99 61T38 253ZM280 72Q342 72 383 117T425 254Q425 327 388 380T282 434Q220 434 178 386T136 253Q136 171 176 122T280 72Z" />
<glyph unicode="r" glyph-name="r" horiz-adv-x="387" d="M85 0V401Q85 423 63 423H22V506H114Q179 506 179 447V415L177 380H179Q198 438 240 475T339 512L365 510V414Q352 417 336 417Q289 417 250 385T194 298Q182 259 182 207V0H85Z" />
<glyph unicode="s" glyph-name="s" horiz-adv-x="454" d="M27 77L77 142Q79 139 84 134T104 116T136 93T178 75T230 67Q268 67 293 84T318 132Q318 157 290 176T221 210T140 245T71 297T42 376Q42 445 95 481T230 518Q290 518 343 495T396 420V372H309V397Q309
418 285 429T233 440Q189 440 164 425T139 380Q139 354 167 335T236 301T317 268T386 217T415 136Q415 69 363 29T229 -12Q191 -12 157 -3T100 19T60 45T34 68L27 77Z" />
<glyph unicode="t" glyph-name="t" horiz-adv-x="352" d="M89 185V428H23V506H91V645H186V506H307V428H186V196Q186 160 197 136T226 101T260 86T293 82L316 84V-2Q303 -4 282 -4Q259 -4 237 -1T187 14T139 45T104 101T89 185Z" />
<glyph unicode="u" glyph-name="u" horiz-adv-x="621" d="M83 182V401Q83 423 61 423H20V506H115Q149 506 164 491T180 444V204Q180 143 199 111T274 78Q349 78 394 134T439 269V506H536V105Q536 83 558 83H599V0H506Q442 0 442 56V75L443 104H441Q422 60 373
24T255 -12Q169 -12 126 35T83 182Z" />
<glyph unicode="v" glyph-name="v" horiz-adv-x="532" d="M210 0L54 403Q46 423 23 423H13V506H63Q97 506 113 496T140 455L249 164L267 98H269Q277 136 287 164L395 455Q406 485 422 495T472 506H519V423H509Q484 423 476 403L322 0H210Z" />
<glyph unicode="w" glyph-name="w" horiz-adv-x="834" d="M188 0L55 403Q49 423 24 423H10V506H71Q105 506 120 495T146 452L236 151L248 97H250Q256 125 264 151L373 504H462L572 151L585 97H587Q591 125 599 151L688 452Q698 484 714 495T764 506H824V423H810Q785
423 779 403L646 0H537L432 325L418 380H416Q410 351 402 325L298 0H188Z" />
<glyph unicode="x" glyph-name="x" horiz-adv-x="494" d="M15 0L186 260L89 404Q76 423 46 423H18V506H80Q115 506 131 497T168 455L230 357L246 325H248Q257 344 265 357L326 455Q345 487 361 496T414 506H477V423H448Q417 423 405 405L308 260L479 0H370L263
165L248 192H246Q238 177 230 165L125 0H15Z" />
<glyph unicode="y" glyph-name="y" horiz-adv-x="546" d="M45 -90Q45 -91 54 -99T81 -117T119 -126Q177 -126 208 -53L231 2L58 403Q49 423 26 423H14V506H71Q102 506 116 496T143 455L258 170L276 109H278Q285 144 295 170L400 455Q411 485 427 495T474 506H532V423H519Q496
423 487 403L287 -91Q264 -149 221 -179T124 -210Q91 -210 61 -198T18 -172L5 -160L45 -90Z" />
<glyph unicode="z" glyph-name="z" horiz-adv-x="505" d="M33 0V56L292 376L334 423V425Q318 423 285 423H147Q125 423 125 401V367H36V442Q36 476 51 491T100 506H462V450L202 129L160 83V81Q176 83 209 83H371Q393 83 393 105V139H481V64Q481 30 466 15T417 0H33Z" />
<glyph unicode="{" glyph-name="braceleft" horiz-adv-x="339" d="M114 77V173Q114 202 105 223T84 255T60 272T38 280L29 282V368Q32 368 38 369T58 377T84 395T105 428T114 479V563Q114 608 126 641T156 692T198 721T240 734T276 737L299 736V662H285Q272 662
261 659T234 646T209 614T199 557V454Q199 426 191 403T170 367T147 344T126 330L118 327V325Q121 324 126 322T146 310T170 287T190 251T199 198V83Q199 49 208 27T233 -5T260 -18T285 -22H299V-96Q290 -98 276 -98Q258 -98 241 -96T199 -82T157 -54T127 -2T114
77Z" />
<glyph unicode="|" glyph-name="bar" horiz-adv-x="299" d="M107 -159V792H192V-159H107Z" />
<glyph unicode="}" glyph-name="braceright" horiz-adv-x="339" d="M40 -22H54Q67 -22 78 -19T105 -6T130 26T140 83V198Q140 227 148 250T168 287T192 310T212 322L221 325V327Q218 328 213 330T193 343T169 366T149 402T140 454V557Q140 591 131 613T106 645T79
658T54 662H40V736Q49 737 63 737Q81 737 98 735T140 721T182 693T212 642T225 563V479Q225 450 234 428T255 395T280 378T301 370L310 368V282Q307 282 301 281T281 273T255 256T234 224T225 173V77Q225 32 213 -2T183 -53T141 -82T99 -95T63 -98L40 -96V-22Z"
/>
<glyph unicode="~" glyph-name="asciitilde" horiz-adv-x="613" d="M62 204Q62 289 98 331T202 373Q237 373 265 358T309 324T346 291T393 275Q429 275 444 303T460 369H539Q539 200 400 200Q365 200 337 215T293 248T256 282T208 297Q173 297 157 269T141 204H62Z" />
</font>
</defs>
</svg>
